Coordinates
version=1
nRows=19
nColumns=24
inDegrees=yes

Units are S.I. units (second, meters, Newtons, ...)
Angles are in degrees.

endheader
time	pelvis_tilt	pelvis_list	pelvis_rotation	pelvis_tx	pelvis_ty	pelvis_tz	hip_flexion_r	hip_adduction_r	hip_rotation_r	knee_angle_r	ankle_angle_r	subtalar_angle_r	mtp_angle_r	hip_flexion_l	hip_adduction_l	hip_rotation_l	knee_angle_l	ankle_angle_l	subtalar_angle_l	mtp_angle_l	lumbar_extension	lumbar_bending	lumbar_rotation
      6.28500000	     33.33096154	      6.03865991	      8.15876640	      1.42876679	      0.63961459	     -0.21777292	     -7.06153260	     -1.06418162	    -11.93598959	    -13.67051837	     19.51701596	    -32.35568568	      0.00000000	    -51.61848213	     -6.53297753	     -3.40952433	    -29.13429635	      9.48243741	     23.21194185	      0.00000000	    -62.83516466	      1.73528381	     -8.74593561
      6.29000000	     33.65241644	      5.67733082	      8.38887597	      1.43657343	      0.63913883	     -0.21736618	     -6.98257763	     -0.58664409	    -12.17018412	    -15.63854642	     19.31482704	    -32.53731537	      0.00000000	    -51.46932156	     -7.32086035	     -3.93650220	    -30.98653853	      7.48522839	     23.00293058	      0.00000000	    -62.95644485	      2.24213541	     -8.57402306
      6.29500000	     33.98872394	      5.26364131	      8.56783775	      1.44434050	      0.63869150	     -0.21699588	     -6.90657405	     -0.07684995	    -12.47213394	    -17.65922480	     19.00377826	    -32.57210927	      0.00000000	    -51.26438093	     -8.09073734	     -4.52518475	    -32.91699112	      5.39058592	     22.47970015	      0.00000000	    -63.08773666	      2.75060306	     -8.32105952
      6.30000000	     34.32067489	      4.89623852	      8.73453936	      1.45213498	      0.63829491	     -0.21661199	     -6.85586133	      0.38194064	    -12.78065698	    -19.69244335	     18.76271437	    -32.52931778	      0.00000000	    -50.99448981	     -8.82130505	     -5.09285234	    -34.87411150	      3.11328190	     21.75495231	      0.00000000	    -63.20093861	      3.20724243	     -8.10773192
      6.30500000	     34.64608954	      4.55474925	      8.88261413	      1.45990286	      0.63793535	     -0.21622852	     -6.82952064	      0.81020901	    -13.08666758	    -21.70622540	     18.56023063	    -32.41419073	      0.00000000	    -50.64872789	     -9.50965627	     -5.63142722	    -36.87242175	      0.75417253	     20.74921229	      0.00000000	    -63.30439700	      3.62674863	     -7.91162473
      6.31000000	     34.95217085	      4.25821425	      9.00985897	      1.46763494	      0.63760698	     -0.21588011	     -6.82578677	      1.18771475	    -13.34653146	    -23.67801688	     18.45210004	    -32.21832414	      0.00000000	    -50.21527358	    -10.12592707	     -6.09062218	    -38.90148273	     -1.65061945	     19.46908712	      0.00000000	    -63.38799360	      4.00675546	     -7.74625593
      6.31500000	     35.21498840	      4.03040545	      9.11864038	      1.47533802	      0.63731182	     -0.21543954	     -6.83742768	      1.49868471	    -13.61523984	    -25.56641838	     18.45799637	    -31.99154031	      0.00000000	    -49.67501496	    -10.68417262	     -6.52651310	    -40.94081527	     -4.05340671	     17.97784328	      0.00000000	    -63.43144448	      4.28323827	     -7.66019242
      6.32000000	     35.52874166	      3.73593922	      9.27355856	      1.48311419	      0.63707339	     -0.21504010	     -7.00009768	      1.94615739	    -13.80136813	    -27.26705348	     18.42958462	    -31.95952463	      0.00000000	    -49.16961417	    -11.33359253	     -6.97311390	    -42.95047330	     -6.29464946	     16.30505556	      0.00000000	    -63.48420512	      4.64994169	     -7.52818157
      6.32500000	     35.83036300	      3.52388912	      9.40887818	      1.49081141	      0.63689744	     -0.21459320	     -7.22886350	      2.32551609	    -13.95271827	    -28.84436289	     18.57812838	    -31.87003168	      0.00000000	    -48.60153207	    -11.89498871	     -7.33307532	    -44.94600584	     -8.40978541	     14.44308763	      0.00000000	    -63.53587220	      4.91691001	     -7.45798523
      6.33000000	     36.11292800	      3.32705943	      9.55188211	      1.49851629	      0.63678350	     -0.21409795	     -7.53699222	      2.73239110	    -14.05215582	    -30.23435284	     18.83826039	    -31.83724904	      0.00000000	    -47.98488065	    -12.44963227	     -7.65616665	    -46.90839756	    -10.30689013	     12.52184751	      0.00000000	    -63.55098346	      5.15616349	     -7.40017402
      6.33500000	     36.37885402	      3.19632966	      9.67714406	      1.50608112	      0.63673857	     -0.21368593	     -7.89903581	      3.08137706	    -14.07622827	    -31.49752605	     19.22217281	    -31.79853369	      0.00000000	    -47.30053136	    -12.88178347	     -7.81312514	    -48.85828890	    -11.93513975	     10.52323735	      0.00000000	    -63.57172298	      5.38169624	     -7.40704885
      6.34000000	     36.60427096	      3.09435984	      9.82209963	      1.51363966	      0.63677894	     -0.21320406	     -8.32497883	      3.44267493	    -14.08272588	    -32.55741721	     19.72687217	    -31.81552918	      0.00000000	    -46.54195687	    -13.29952515	     -7.90740256	    -50.77210072	    -13.27500232	      8.57728199	      0.00000000	    -63.54505405	      5.56014176	     -7.44578651
      6.34500000	     36.83722101	      2.99534306	      9.97600368	      1.52116478	      0.63693414	     -0.21265570	     -8.86585828	      3.85999633	    -14.01692850	    -33.39606865	     20.26274974	    -31.90446836	      0.00000000	    -45.77767094	    -13.71268681	     -7.96563844	    -52.63459141	    -14.22900030	      6.68321346	      0.00000000	    -63.52050279	      5.69762120	     -7.44772243
      6.35000000	     37.04239015	      2.94534520	     10.12369784	      1.52857806	      0.63719554	     -0.21217958	     -9.46479279	      4.23482957	    -13.93013521	    -34.06369675	     20.92188960	    -32.01133028	      0.00000000	    -44.94827368	    -14.02365081	     -7.89729713	    -54.46368739	    -14.82681851	      4.88044792	      0.00000000	    -63.48588131	      5.82363973	     -7.49685790
      6.35500000	     37.25216448	      2.87862164	     10.24152571	      1.53596358	      0.63758061	     -0.21175071	    -10.15258079	      4.64152126	    -13.79153724	    -34.55379396	     21.62267767	    -32.17465952	      0.00000000	    -44.13165483	    -14.28658851	     -7.81350480	    -56.21283467	    -15.09589041	      3.25243077	      0.00000000	    -63.44964582	      5.95712334	     -7.47910701
      6.36000000	     37.44148658	      2.88161799	     10.35775357	      1.54321437	      0.63810650	     -0.21132243	    -10.89991421	      4.98737404	    -13.64199479	    -34.89347561	     22.35085854	    -32.32616665	      0.00000000	    -43.25713701	    -14.44569935	     -7.62160473	    -57.91279872	    -15.03825951	      1.74442255	      0.00000000	    -63.41665613	      6.02234927	     -7.50301319
      6.36500000	     37.59303933	      2.93824656	     10.47558960	      1.55034860	      0.63877780	     -0.21094228	    -11.68864457	      5.27787969	    -13.49140989	    -35.07830933	     23.07811465	    -32.45577776	      0.00000000	    -42.30885400	    -14.50124271	     -7.32240762	    -59.55678790	    -14.68114682	      0.39538312	      0.00000000	    -63.36792159	      6.05557884	     -7.56184599
      6.37000000	     37.71173539	      3.03418312	     10.58211359	      1.55735702	      0.63958342	     -0.21059453	    -12.51064570	      5.51830385	    -13.35199367	    -35.12463075	     23.79015708	    -32.56011422	      0.00000000	    -41.29890020	    -14.46151250	     -6.95710029	    -61.13728800	    -14.05244895	     -0.76203177	      0.00000000	    -63.31450909	      6.06382163	     -7.63786794
      6.37500000	     37.78855416	      3.17885876	     10.69907276	      1.56420940	      0.64050723	     -0.21027209	    -13.33756822	      5.69023073	    -13.28446682	    -35.07368664	     24.44111204	    -32.61449432	      0.00000000	    -40.20303780	    -14.34279321	     -6.53466272	    -62.66582042	    -13.19885163	     -1.73549871	      0.00000000	    -63.25454500	      6.02375681	     -7.77758034
